<svg width="6123" height="4957" viewBox="0 0 6123 4957" fill="none" xmlns="http://www.w3.org/2000/svg">
<g id="g18">
<g id="body">
<g id="g38">
<path id="path40" fill-rule="evenodd" clip-rule="evenodd" d="M1678.74 4257.11C2355.82 4257.11 2904.7 4308.45 2904.7 4371.73C2904.7 4435.05 2355.82 4486.36 1678.74 4486.36C1001.66 4486.36 452.773 4435.05 452.773 4371.73C452.773 4308.45 1001.66 4257.11 1678.74 4257.11Z" fill="#97B5C9"/>
</g>
<g id="g42">
<path id="path44" d="M1056.74 2304.56C1070.17 2334.82 1083.64 2365.14 1108.42 2396.53L1121.26 2412.8L1119.16 2433.13L1019.67 3393.66L1009.59 3490.98L935.891 3426.89C879.06 3377.51 833.764 3338.72 788.428 3299.94C744.576 3262.39 700.739 3224.87 640.877 3172.85L623.415 3157.67C427.701 2987.91 397.56 2961.76 535.336 2711.52C611.797 2572.65 717.8 2438.77 811.887 2319.94C847.072 2275.51 880.551 2233.24 911.301 2191.9L950.864 2138.74L991.911 2190.7C1024.49 2231.98 1040.63 2268.28 1056.74 2304.56ZM1016.04 2442.34C991.708 2407.96 977.844 2376.75 963.993 2345.57C958.897 2334.08 953.787 2322.59 948.064 2311.04C930.105 2334.08 911.052 2358.12 891.5 2382.82C800.32 2497.99 697.571 2627.76 624.493 2760.47C526.251 2938.9 548.099 2957.85 689.889 3080.85L707.361 3096.03C763.968 3145.26 809.275 3184.02 854.492 3222.72C878.341 3243.13 902.212 3263.54 928.628 3286.29L1016.04 2442.34Z" fill="#343E40"/>
</g>
<g id="g46">
<path id="path48" fill-rule="evenodd" clip-rule="evenodd" d="M1068.61 2427.97C1011.23 2355.3 1009.47 2294.8 952.088 2222.13C844.776 2366.38 683.795 2547.34 579.922 2736C457.956 2957.53 489.799 2974.17 674.119 3134.44C790.716 3235.82 852.486 3287.1 969.111 3388.48C1002.27 3068.33 1035.45 2748.12 1068.61 2427.97Z" fill="#97A5AE"/>
</g>
<g id="g50">
<path id="path52" fill-rule="evenodd" clip-rule="evenodd" d="M1068.61 2427.94C1011.23 2355.3 1009.49 2294.8 952.088 2222.13C878.42 2321.18 779.429 2437.5 691.02 2561.74C802.363 2601.25 921.084 2629.67 1046.14 2644.84L1068.61 2427.94Z" fill="#788B96"/>
</g>
<g id="g82">
<path id="path84" d="M977.851 2201.25L1116.73 2110.91L1132.29 2100.78L1150.76 2103.15C1327.9 2125.81 1492.54 2124.7 1657.15 2123.59C1825.02 2122.46 1992.91 2121.33 2176.66 2144.84L2205.66 2148.55L2217.06 2175.29C2326.88 2432.58 2394.51 2767.47 2435.92 3121.08C2475.28 3457.18 2491.03 3812.02 2496.85 4132.86C2532.87 4143.4 2569.78 4161.66 2599.81 4190.08C2634.19 4222.64 2659.21 4267.5 2663.93 4327.8L2668.19 4382.5H2613.17H2036.01H1996.91L1986.83 4344.5C1984.33 4334.94 1977.56 4309.02 1970.51 4281.84C1927.95 4118.3 1889.02 3968.83 1807.54 3836.04C1762.79 3856.37 1719.4 3873.53 1674.8 3888.67C1624.82 3905.6 1573.4 3919.88 1516.86 3933.19C1488.7 3992.82 1464.26 4051.44 1442.69 4113.23C1418.29 4183.11 1397.37 4257.22 1378.71 4341.59L1369.95 4381.15L1329.34 4381.41C1248.17 4381.92 1154.22 4382.47 1060.32 4382.99C966.371 4383.51 872.409 4384.06 791.205 4384.57L743.008 4384.89L740.257 4336.6C737.601 4289.96 761.693 4244.38 800.291 4209C824.261 4187.02 854.437 4168.57 887.173 4156.45C844.676 3846 828.608 3508.46 838.988 3180.13C849.692 2841.12 888.759 2511.82 956.156 2232.09L960.936 2212.24L977.851 2201.25ZM1156.59 2206.15L1050.19 2275.36C987.315 2543.98 950.743 2858.77 940.484 3183.3C929.816 3520.84 947.724 3868.86 994.199 4186.36L1001.48 4236.09L951.615 4243.89C921.208 4248.64 891.759 4263.3 870.149 4282.59L1059.93 4281.49C1138.67 4281.06 1217.42 4280.6 1288.66 4280.14C1305.97 4207.38 1325.07 4141.88 1346.76 4079.77C1372.48 4006.09 1401.74 3937.3 1435.81 3867.08L1446.52 3844.99L1470.45 3839.61C1532.57 3825.64 1588.05 3810.7 1642.15 3792.33C1695.33 3774.3 1747.39 3752.74 1803.56 3725.36L1842.72 3706.24L1867.66 3742.26C1975.66 3898.52 2019.95 4068.6 2068.81 4256.39L2075.14 4280.6H2544.12C2539.86 4274.33 2535.02 4268.71 2529.76 4263.73C2505.02 4240.32 2470.35 4228.46 2440.03 4224.31L2396.73 4218.38L2396.04 4174.76C2390.85 3847.64 2375.63 3481.05 2334.82 3132.65C2295.87 2799.98 2233.65 2485.64 2134.71 2242C1968.61 2222.99 1813.04 2224.06 1657.53 2225.1C1495.33 2226.19 1333.1 2227.28 1156.59 2206.15" fill="#343E40"/>
</g>
<g id="g86">
<path id="path88" fill-rule="evenodd" clip-rule="evenodd" d="M1144.39 2153.49C1068.93 2202.58 1080.97 2194.74 1005.51 2243.84C871.366 2800.64 850.838 3558.39 943.838 4193.73C862.987 4206.37 787.478 4271.85 791.006 4333.84C953.405 4332.78 1166.75 4331.71 1329.15 4330.65C1367.49 4157.37 1414.85 4026.68 1481.59 3889.16C1609.93 3860.34 1710.22 3827.57 1825.85 3771.11C1940.39 3936.78 1980.93 4123.45 2036.01 4331.57H2613.17C2604.9 4225.9 2516.19 4183.46 2446.8 4173.95C2436.38 3515.57 2385.59 2699.66 2170.27 2195.19C1809.38 2149 1505.3 2199.69 1144.39 2153.49Z" fill="#97A5AE"/>
</g>
<g id="g90">
<path id="path92" fill-rule="evenodd" clip-rule="evenodd" d="M2446.8 4173.95C2437.85 3608.46 2399.09 2926.78 2251.93 2426.01C2333.7 3001.44 2394.77 3585.8 2446.8 4173.95Z" fill="#CFDEE8"/>
</g>
<g id="g94">
<path id="path96" fill-rule="evenodd" clip-rule="evenodd" d="M1265.69 4331.05H1266.06H1266.68L1267.67 4331.02H1268.67H1269.66H1270.64L1271.64 4330.99H1272.64H1273.62H1274.17H1274.61H1275.61L1277.59 4330.96H1278.59H1279.57H1280.56L1284.53 4330.93H1285.52L1286.51 4330.91H1287.51H1288.49H1289.49H1290.19L1290.47 4330.88H1291.47H1292.47H1293.45H1294.45L1296.42 4330.85H1297.42H1298.12H1298.41H1299.4L1300.39 4330.82H1301.39H1302.37H1303.37H1304.37L1305.35 4330.79H1305.99H1306.34H1307.32H1308.32L1309.32 4330.76H1310.3H1311.3H1312.29H1313.27H1313.78L1314.28 4330.73H1315.27H1316.25H1317.25H1318.24L1319.23 4330.7H1320.22H1321.22H1321.5H1322.2H1323.2L1324.2 4330.68H1325.17H1326.17H1327.17L1328.15 4330.65H1329.15C1367.49 4157.37 1414.85 4026.68 1481.59 3889.16C1609.93 3860.34 1710.22 3827.57 1825.85 3771.11C1940.39 3936.79 1980.93 4123.45 2036.01 4331.57H2147.07C2133.93 4281.41 1960.98 3952.53 2009.26 3633.48C1800.86 3771.46 1635.44 3809.17 1409 3857.98C1358.77 3990.4 1294.67 4164.65 1265.69 4331.05Z" fill="#788B96"/>
</g>
<g id="g98">
<path id="path100" fill-rule="evenodd" clip-rule="evenodd" d="M1144.39 2153.49C1068.93 2202.58 1080.97 2194.74 1005.51 2243.84C976.677 2363.5 953.102 2492.49 934.778 2627.53C1059.08 2651.06 1190.38 2661.45 1327.55 2656.33C1681.14 2669.49 1995.76 2580.14 2251.93 2426.01C2227.74 2343.75 2200.65 2266.38 2170.27 2195.19C1809.38 2149 1505.3 2199.69 1144.39 2153.49Z" fill="#788B96"/>
</g>
<g id="g102">
<path id="path104" d="M868.891 2885.44C900.115 2888.31 932.724 2896.87 960.749 2908.64V2908.84C1000.87 2925.72 1024.39 2963.66 1035.64 3012.24C1046.16 3057.68 1046.13 3114.28 1039.53 3168.53C1033.27 3220.18 1020.95 3271.09 1006.18 3308.75C986.035 3360.09 955.729 3393.63 918.501 3394.06C879.168 3394.49 835.591 3384.74 799.643 3370.34C756.856 3353.18 721.259 3326.86 708.283 3298.96L706.871 3295.94L705.892 3292.8C682.512 3218.37 677.691 3149.67 686.559 3088.45C696.7 3018.4 724.747 2958.37 763.581 2910.77L771.661 2900.86L782.892 2896.03C807.632 2885.38 837.851 2882.55 868.891 2885.44ZM921.337 3002.56C901.621 2994.3 879.703 2988.37 859.732 2986.53C849.836 2985.6 840.745 2985.6 833.229 2986.81C810.275 3018.74 793.767 3057.79 787.261 3102.8C780.647 3148.46 784.225 3200.4 801.495 3257.58C805.303 3261.73 819.033 3268.62 837.469 3275.98C862.489 3286.03 892.032 3292.85 917.7 3292.54C927.599 3292.45 906.464 3284.45 911.447 3271.72C923.209 3241.72 933.179 3199.97 938.44 3156.6C943.796 3112.47 944.211 3068.07 936.537 3034.93C932.465 3017.33 927.399 3004.98 921.408 3002.39L921.337 3002.56Z" fill="#343E40"/>
</g>
<g id="g106">
<path id="path108" fill-rule="evenodd" clip-rule="evenodd" d="M941.047 2955.6C895.727 2936.57 838.212 2927.64 802.983 2942.82C739.911 3020.13 710.046 3136.28 754.46 3277.65C768.992 3308.92 851.888 3344.05 918.091 3343.3C946.2 3342.96 977.748 3255.05 988.988 3162.57C1000 3071.9 991.491 2976.82 941.047 2955.6Z" fill="white"/>
</g>
<g id="g110">
<path id="path112" fill-rule="evenodd" clip-rule="evenodd" d="M872.865 2936.94C838.391 2931.76 814.17 2937.98 802.989 2942.82C739.926 3020.13 710.039 3136.28 754.467 3277.65C762.781 3295.56 793.518 3314.71 830.709 3327.7C776.751 3267.86 801.067 2982.21 872.865 2936.94Z" fill="#CFDEE8"/>
</g>
<g id="g114">
<path id="path116" fill-rule="evenodd" clip-rule="evenodd" d="M1209.83 2100.64C1144.32 2520.8 1108.64 2936.69 1149.26 3341.6C1228.29 3601.69 2062.16 3469.96 2106.15 3240.74C2121.96 2803.98 2043.12 2402.03 1974.02 1989.76C1712.89 2027.65 1470.94 2062.74 1209.83 2100.64Z" fill="white"/>
</g>
<g id="g118">
<path id="path120" fill-rule="evenodd" clip-rule="evenodd" d="M1200.77 2159.98C1176.09 2325.46 1156.39 2490.28 1144.52 2653.94C1204.24 2657.79 1265.29 2658.66 1327.55 2656.33C1597.63 2666.4 1844.97 2616.62 2060.89 2523.91C2044.7 2408.85 2025.76 2294.54 2006.3 2179.98C1732.01 2163.45 1482.36 2188.95 1200.77 2159.98Z" fill="#CFDEE8"/>
</g>
<g id="g122">
<path id="path124" d="M1288.39 270.628C1383.9 255.086 1479.82 246.04 1576.18 244.541H1576.77H1577.37C1759.91 247.392 1942.17 277.596 2124.15 328.054L2437.76 47.3224L2489.96 0.59178L2518.15 64.8358C2598.23 247.26 2663.21 435.144 2716.36 627.265C2768.22 814.686 2808.79 1006.02 2841.09 1200.2C2872.05 1237.07 2907.4 1268.05 2946.05 1294.58C2989.06 1324.14 3036.43 1348.4 3086.56 1369.21L3153.07 1396.84L3104.67 1450.21C3068.9 1489.62 3031.96 1521.06 2994.19 1546.87C3012.58 1546.43 3031.24 1545.38 3050.1 1543.76L3142.79 1535.79L3099.28 1618.19C2964.5 1873.38 2747.69 2097.48 2470.01 2249.48C2217.26 2387.83 1914.16 2466.41 1576.77 2454.17C1239.39 2466.41 936.274 2387.83 683.542 2249.48C405.867 2097.48 189.058 1873.38 54.2698 1618.19L10.7485 1535.79L103.432 1543.76C122.307 1545.38 140.959 1546.43 159.34 1546.87C121.378 1520.97 84.4164 1489.58 48.8924 1450.42L0.331055 1396.91L67.0017 1369.21C117.118 1348.4 164.468 1324.14 207.504 1294.58C246.154 1268.05 281.491 1237.05 312.442 1200.2C344.756 1006.02 385.332 814.686 437.18 627.265C490.335 435.152 555.332 247.26 635.392 64.8358L663.582 0.59178L715.798 47.3224L1029.4 328.054C1116.1 304.006 1202.44 284.6 1288.39 270.628ZM1576.74 346.05C1486.5 347.496 1395.79 356.112 1304.7 370.935C1212.77 385.885 1121.31 406.97 1030.26 433.208L1003.37 440.96L982.494 422.26L700.86 170.159C635.278 327.761 580.73 489.425 535.107 654.338C483.122 842.241 442.639 1034.59 410.506 1230.1L408.339 1243.32L400.16 1253.58C360.694 1303.18 315.028 1344.1 264.826 1378.58C236.279 1398.19 206.288 1415.67 175.186 1431.43C195.635 1448.75 216.382 1463.58 237.359 1476.51C276.056 1500.37 317.03 1518.45 358.966 1534L525.122 1595.61L351.406 1631.52C309.555 1640.16 267.13 1645.47 224.212 1647.64C212.4 1648.24 200.588 1648.61 188.783 1648.76C315.543 1854.46 501.288 2033.94 732.108 2160.3C970.099 2290.57 1256.1 2364.45 1574.98 2352.59L1576.77 2352.53L1578.57 2352.59C1897.43 2364.45 2183.43 2290.57 2421.44 2160.3C2652.27 2033.94 2838.01 1854.46 2964.76 1648.76C2952.95 1648.61 2941.15 1648.24 2929.32 1647.64C2886.41 1645.47 2843.97 1640.16 2802.14 1631.52L2628.51 1595.63L2794.76 1534C2836.43 1518.55 2877.26 1500.51 2916.19 1476.51C2937.26 1463.52 2958.05 1448.71 2978.44 1431.48C2947.31 1415.7 2917.31 1398.21 2888.72 1378.58C2838.5 1344.1 2792.87 1303.19 2753.39 1253.58L2745.22 1243.32L2743.02 1230.1C2710.92 1034.59 2670.44 842.241 2618.44 654.338C2572.83 489.425 2518.27 327.761 2452.67 170.159L2171.05 422.26L2150.18 440.96L2123.28 433.208C1940.82 380.625 1758.59 348.944 1576.74 346.05Z" fill="#343E40"/>
</g>
<g id="g126">
<path id="path128" fill-rule="evenodd" clip-rule="evenodd" d="M1576.77 295.296C1389.94 298.21 1203.14 330.609 1016.32 384.445C904.866 284.678 793.415 184.894 681.966 85.1356C523.777 445.537 425.159 827.581 360.354 1221.94C288.039 1312.81 192.786 1372.05 86.5034 1416.18C166.353 1504.22 252.877 1548.99 341.243 1581.76C262.753 1597.99 181.981 1601.63 99.2515 1594.52C348.673 2066.72 888.995 2428.95 1576.77 2403.35C2264.54 2428.95 2804.87 2066.72 3054.28 1594.52C2971.56 1601.63 2890.79 1597.99 2812.3 1581.76C2900.67 1548.99 2987.19 1504.22 3067.04 1416.18C2960.76 1372.05 2865.51 1312.81 2793.18 1221.94C2728.4 827.581 2629.75 445.537 2471.59 85.1356C2360.13 184.894 2248.68 284.678 2137.22 384.445C1950.41 330.609 1763.6 298.21 1576.77 295.296Z" fill="#97A5AE"/>
</g>
<g id="g130">
<path id="path132" fill-rule="evenodd" clip-rule="evenodd" d="M1576.77 295.296C1389.94 298.21 1203.14 330.609 1016.32 384.445C904.866 284.678 793.416 184.894 681.966 85.1356C787.693 195.981 893.432 325.917 999.164 436.762C1298.44 317.813 1705.03 295.844 2103.04 374.842C1927.6 326.766 1752.2 298.037 1576.77 295.296Z" fill="#CFDEE8"/>
</g>
<g id="g134">
<path id="path136" fill-rule="evenodd" clip-rule="evenodd" d="M681.967 85.1356C523.776 445.537 425.16 827.581 360.355 1221.94C288.04 1312.81 192.785 1372.05 86.5042 1416.18C166.353 1504.22 252.877 1548.99 341.244 1581.76C262.753 1597.99 181.981 1601.63 99.2521 1594.52C348.672 2066.72 888.996 2428.95 1576.77 2403.35C1011.91 2368.97 565.849 2097.3 226.028 1655.27C303.249 1650.03 365.328 1632.5 438.571 1586.82C344.757 1559.25 250.077 1490.15 183.847 1426.78C263.647 1400.02 370.215 1318.78 414.961 1240.52C467.801 826.046 552.728 482.609 681.967 85.1356Z" fill="#788B96"/>
</g>
<g id="g138">
<path id="path140" fill-rule="evenodd" clip-rule="evenodd" d="M2471.59 85.1356C2629.75 445.537 2728.4 827.581 2793.18 1221.94C2865.51 1312.81 2960.76 1372.05 3067.03 1416.18C2987.19 1504.22 2900.67 1548.99 2812.3 1581.76C2890.79 1597.99 2971.56 1601.63 3054.28 1594.52C2804.87 2066.72 2264.54 2428.95 1576.77 2403.35C2141.62 2368.97 2610 2159.39 2943.45 1663.22C2866.23 1657.99 2788.23 1632.5 2714.98 1586.82C2808.79 1559.25 2903.46 1490.15 2969.71 1426.78C2889.9 1400.02 2783.33 1318.78 2738.59 1240.52C2685.75 826.046 2600.81 482.609 2471.59 85.1356Z" fill="#CFDEE8"/>
</g>
<g id="g142">
<path id="path144" fill-rule="evenodd" clip-rule="evenodd" d="M1024.88 2336.18C1194.48 2386.1 1379.55 2410.7 1576.77 2403.35C1774 2410.7 1959.08 2386.1 2128.66 2336.18C2243.98 2240.55 2314.04 2114.78 2314.04 1976.95C2314.04 1677.7 1983.95 1435.09 1576.77 1435.09C1169.59 1435.09 839.515 1677.7 839.515 1976.95C839.515 2114.78 909.562 2240.55 1024.88 2336.18Z" fill="white"/>
</g>
<g id="g146">
<path id="path148" fill-rule="evenodd" clip-rule="evenodd" d="M1024.88 2336.18L1040.83 2340.78L1048.82 2343.03L1049.4 2343.2C1057.23 2345.36 1065.1 2347.49 1072.99 2349.54L1081.07 2351.64C1089.1 2353.68 1097.19 2355.7 1105.28 2357.63L1105.76 2357.74C1113.31 2359.55 1120.9 2361.34 1128.5 2363.04L1130.11 2363.41L1138.36 2365.23L1138.57 2365.29L1156.32 2369.06L1167.44 2371.31L1185.49 2374.82L1188.31 2375.37L1196.71 2376.89L1198.17 2377.15L1212.87 2379.77L1228.79 2382.39L1241.13 2384.35L1258.89 2387L1272.13 2388.84L1291.42 2391.35L1299.5 2392.32C1306.78 2393.19 1314.07 2394.02 1321.37 2394.8L1330.13 2395.69C1338.1 2396.53 1346.09 2397.28 1354.12 2397.97L1358.93 2398.37C1367.78 2399.12 1376.65 2399.81 1385.56 2400.41L1386.68 2400.47L1387.34 2400.56L1389.09 2400.64C1397.99 2401.25 1406.9 2401.77 1415.86 2402.23L1420.81 2402.48C1430.21 2402.95 1439.65 2403.32 1449.11 2403.64L1449.58 2403.67H1449.64C1459.69 2403.98 1469.77 2404.21 1479.89 2404.39L1481.97 2404.42C1492.12 2404.56 1502.29 2404.65 1512.5 2404.62H1512.73H1512.91C1522.76 2404.59 1532.65 2404.47 1542.56 2404.3L1546.31 2404.21C1556.44 2404.01 1566.58 2403.72 1576.77 2403.35C1342.44 2389.1 1128.57 2333.96 934.23 2242.8C959.947 2276.29 990.397 2307.59 1024.88 2336.18Z" fill="#CFDEE8"/>
</g>
<g id="g150">
<path id="path152" fill-rule="evenodd" clip-rule="evenodd" d="M1419.62 1777.4C1404.14 1835.46 1498.8 1905.44 1576.68 1911.37C1653.5 1897.19 1740.16 1817.54 1718.6 1761.45C1689.08 1712.66 1443.79 1725.74 1419.62 1777.4Z" fill="#343E40"/>
</g>
<g id="g154">
<path id="path156" d="M1359.77 2003.41C1362.38 2031.03 1381.47 2051 1406.61 2062.38C1422.19 2069.43 1439.92 2073.3 1457.67 2073.84C1475.5 2074.35 1493.25 2071.59 1508.83 2065.4C1533.47 2055.61 1552.72 2036.66 1556.93 2008.06L1607.13 2015.4C1599.93 2064.33 1568.12 2096.28 1527.48 2112.43C1505.4 2121.21 1480.71 2125.15 1456.28 2124.43C1431.77 2123.71 1407.31 2118.35 1385.77 2108.6C1345.01 2090.16 1313.91 2056.34 1309.36 2008.16L1359.77 2003.41Z" fill="#343E40"/>
</g>
<g id="g158">
<path id="path160" d="M1852.77 1979.2C1853.35 2027.54 1826.05 2064.46 1787.47 2087.14C1767 2099.18 1743.24 2107.12 1719.06 2110.43C1694.84 2113.75 1669.88 2112.48 1647.02 2106.1C1604.93 2094.37 1569.9 2065.98 1557.53 2018.08L1606.54 2005.39C1613.77 2033.37 1634.95 2050.16 1660.52 2057.28C1676.7 2061.78 1694.64 2062.65 1712.32 2060.23C1730.03 2057.81 1747.21 2052.1 1761.87 2043.48C1785.65 2029.49 1802.5 2007.58 1802.18 1979.8L1852.77 1979.2Z" fill="#343E40"/>
</g>
<g id="g162">
<path id="path164" d="M1557.39 2023.16L1543.84 1769.25L1594.23 1766.67L1607.78 2020.58L1557.39 2023.16Z" fill="#343E40"/>
</g>
<g id="g166">
<path id="path168" fill-rule="evenodd" clip-rule="evenodd" d="M875.593 429.176C822.505 372.374 789.278 342.609 730.884 299.629C695.325 367.018 672.334 458.897 654.294 548.58C721.24 496.07 793.805 454.118 875.593 429.176Z" fill="#343E40"/>
</g>
<g id="g170">
<path id="path172" fill-rule="evenodd" clip-rule="evenodd" d="M2277.96 429.176C2331.05 372.374 2364.28 342.609 2422.67 299.629C2458.23 367.018 2481.21 458.897 2499.23 548.58C2432.32 496.07 2359.73 454.118 2277.96 429.176Z" fill="#343E40"/>
</g>
<g id="g174">
<path id="path176" fill-rule="evenodd" clip-rule="evenodd" d="M1938.4 3700.19C1857.87 3839.84 1627.64 3916.26 1467.82 3918.39L1481.59 3889.16L1480.92 3887.92C1630.58 3852.39 1839.58 3784.12 1938.4 3700.19Z" fill="#343E40"/>
</g>
<g id="g178">
<path id="path180" fill-rule="evenodd" clip-rule="evenodd" d="M1576.77 937.662C1353.55 935.531 1250.04 747.499 1080.07 723.01C720.175 671.124 435.311 1071.03 457.87 1410.21C495.811 1980.73 1281.25 1506.89 1576.77 1510.09C1875.49 1503.73 2657.71 1980.73 2695.66 1410.21C2718.23 1071.03 2433.36 671.124 2073.47 723.01C1903.5 747.499 1799.97 935.531 1576.77 937.662Z" fill="#343E40"/>
</g>
<g id="g182">
<path id="path184" fill-rule="evenodd" clip-rule="evenodd" d="M1093.66 975.847C1229.97 975.847 1340.48 1086.36 1340.48 1222.66C1340.48 1358.97 1229.97 1469.48 1093.66 1469.48C957.373 1469.48 846.857 1358.97 846.857 1222.66C846.857 1086.36 957.373 975.847 1093.66 975.847Z" fill="white"/>
</g>
<g id="g186">
<path id="path188" fill-rule="evenodd" clip-rule="evenodd" d="M1093.66 1068.83C1178.62 1068.83 1247.5 1137.71 1247.5 1222.66C1247.5 1307.61 1178.62 1376.49 1093.66 1376.49C1008.72 1376.49 939.844 1307.61 939.844 1222.66C939.844 1137.71 1008.72 1068.83 1093.66 1068.83Z" fill="#343E40"/>
</g>
<g id="g190">
<path id="path192" fill-rule="evenodd" clip-rule="evenodd" d="M1142.73 1134.43C1169.79 1134.43 1191.75 1156.38 1191.75 1183.45C1191.75 1210.53 1169.79 1232.47 1142.73 1232.47C1115.65 1232.47 1093.7 1210.53 1093.7 1183.45C1093.7 1156.38 1115.65 1134.43 1142.73 1134.43Z" fill="white"/>
</g>
<g id="g194">
<path id="path196" fill-rule="evenodd" clip-rule="evenodd" d="M2059.88 975.847C2196.19 975.847 2306.7 1086.36 2306.7 1222.66C2306.7 1358.97 2196.19 1469.48 2059.88 1469.48C1923.57 1469.48 1813.07 1358.97 1813.07 1222.66C1813.07 1086.36 1923.57 975.847 2059.88 975.847Z" fill="white"/>
</g>
<g id="g198">
<path id="path200" fill-rule="evenodd" clip-rule="evenodd" d="M2059.88 1068.83C2144.82 1068.83 2213.69 1137.71 2213.69 1222.66C2213.69 1307.61 2144.82 1376.49 2059.88 1376.49C1974.91 1376.49 1906.04 1307.61 1906.04 1222.66C1906.04 1137.71 1974.91 1068.83 2059.88 1068.83Z" fill="#343E40"/>
</g>
<g id="g202">
<path id="path204" fill-rule="evenodd" clip-rule="evenodd" d="M2108.91 1134.43C2136.01 1134.43 2157.95 1156.38 2157.95 1183.45C2157.95 1210.53 2136.01 1232.47 2108.91 1232.47C2081.85 1232.47 2059.91 1210.53 2059.91 1183.45C2059.91 1156.38 2081.85 1134.43 2108.91 1134.43Z" fill="white"/>
</g>
</g>
<g id="hand_net" filter="url(#filter0_d)">
<g id="netStick">
<g id="net">
<g id="g206">
<path id="path208" d="M5387.46 3372.84C5535.11 3284.34 5654.48 3186.44 5732.59 3083.79C5721.03 3089.83 5709.05 3095.69 5696.64 3101.38C5589.53 3150.5 5450.12 3188.13 5297.27 3204.44C5134.85 3221.79 4984.72 3212.14 4870.49 3182.32C4803.98 3164.93 4748.57 3140.14 4708.11 3109.06C4689.7 3180.57 4661.93 3246.77 4623.08 3307.96C4566.24 3397.54 4486.08 3475.72 4377.35 3543.61C4360.52 3554.1 4339.3 3565.99 4315.57 3579.24C4240.76 3621.06 4138.71 3678.15 4116.83 3722.29C4113.99 3728.06 4118.91 3735.39 4136.85 3744.79C4166.86 3753.16 4205.55 3753.66 4247.83 3750.12C4295.09 3746.15 4346.5 3737.05 4395.99 3727.81C4767.55 3658.6 5121.94 3531.98 5387.46 3372.84ZM5918.13 2901.18C5879.31 3103.56 5697.55 3293.99 5434.61 3451.6C5160.23 3616.08 4794.97 3746.73 4412.76 3817.95C4360.88 3827.6 4306.83 3837.16 4255.59 3841.45C4201.1 3846.03 4149.57 3844.59 4106.4 3831.34C4103.95 3830.58 4101.64 3829.67 4099.43 3828.57L4099 3828.34L4098.79 3828.25C4018.9 3788.43 4007.26 3737.07 4034.77 3681.52C4069.17 3612.09 4185.63 3546.95 4271 3499.22C4294.01 3486.36 4314.58 3474.86 4329.06 3465.81C4425.53 3405.59 4496.18 3336.94 4545.74 3258.86C4595.16 3180.98 4624.05 3092.89 4637.05 2993.81C4639.08 2977.99 4648.95 2965.08 4662.27 2958.52L4662.22 2958.42L4662.23 2958.41C4684.98 2947.22 4712.52 2956.58 4723.72 2979.34C4725.5 2982.95 4726.76 2986.73 4727.53 2990.53C4740.1 3033.53 4801.68 3069.72 4893.68 3093.73C4997.55 3120.85 5135.99 3129.42 5287.58 3113.25C5430.82 3097.96 5560.08 3063.33 5658.17 3018.33C5751 2975.76 5813.74 2926.14 5829.62 2878.15C5837.57 2854.15 5863.49 2841.14 5887.49 2849.07C5909.58 2856.38 5922.37 2878.91 5918.08 2901.17L5918.13 2901.18Z" fill="#343E40"/>
</g>
<g id="g210">
<path id="path212" fill-rule="evenodd" clip-rule="evenodd" d="M5873.09 2892.54C5798.2 3282.85 5133.27 3637.08 4404.37 3772.89C4303 3791.77 4193.51 3810.16 4119.83 3787.54C3949.18 3703.03 4254.66 3566.25 4353.21 3504.72C4558.42 3376.62 4654.77 3211.05 4682.5 2999.62L4682.51 2999.62C4713.34 3121.82 4977.15 3192.5 5292.43 3158.84C5590.78 3127 5833.36 3012.63 5873.09 2892.54Z" fill="#CFDEE8"/>
</g>
<g id="g214">
<path id="path216" d="M4771.52 2976.22C4771.53 2976.25 4771.53 2976.25 4771.53 2976.22L4771.52 2976.22ZM4771.52 2976.22L4771.53 2976.22L4771.52 2975.77L4771.5 2975.79L4771.52 2976.22ZM5669.91 2961.14C5742.7 2923.14 5787.27 2886.06 5786.69 2858.74L5786.56 2857.53C5784.36 2836.92 5746.71 2814.63 5686.14 2794.53C5600.83 2766.27 5482.21 2753.24 5347.97 2760.61C5325.35 2761.86 5301.21 2763.82 5275.62 2766.56C5121.33 2783.02 4984.64 2822.34 4888.39 2872.56C4815.42 2910.65 4770.8 2947.82 4771.61 2975.15L4771.74 2976.18C4773.95 2996.78 4811.58 3019.06 4872.14 3039.15C4957.45 3067.45 5076.04 3080.46 5210.27 3073.09C5232.99 3071.83 5255.6 3070.07 5277.94 3067.77C5279.51 3067.52 5281.09 3067.32 5282.67 3067.15C5436.97 3050.68 5573.66 3011.36 5669.91 2961.14ZM5970.67 2847.79C5976.51 2954.06 5893.66 3051.95 5755.04 3124.31C5639.11 3184.83 5479 3231.69 5302.17 3250.55C5300.56 3250.73 5298.93 3250.86 5297.32 3250.94C5270.78 3253.71 5245.1 3255.72 5220.4 3257.09C5063.14 3265.71 4920.49 3249.24 4814.24 3213.98C4683.26 3170.55 4598.98 3095.25 4588.33 2995.68L4587.79 2986.22L4587.78 2985.91L4587.63 2985.91C4581.8 2879.65 4664.65 2781.75 4803.27 2709.39C4919.19 2648.88 5079.32 2602.01 5256.12 2583.13C5282.64 2580.32 5309.96 2578.13 5337.84 2576.61C5495.09 2567.96 5637.78 2584.45 5744.04 2619.7C5875.04 2663.13 5959.34 2738.45 5969.97 2838.03C5970.17 2839.95 5970.31 2841.87 5970.39 2843.79L5970.67 2847.79Z" fill="#343E40"/>
</g>
<g id="g218">
<path id="path220" fill-rule="evenodd" clip-rule="evenodd" d="M5878.67 2852.86C5886.01 2986.53 5623.54 3123.52 5292.42 3158.85C4961.32 3194.2 4686.96 3114.5 4679.61 2980.82C4672.3 2847.17 4934.76 2710.18 5265.88 2674.86C5596.99 2639.51 5871.34 2719.21 5878.67 2852.86Z" fill="#CFDEE8"/>
</g>
<g id="g222">
<path id="path224" d="M5855.88 2948.25C5863.66 2938.29 5878.06 2936.53 5888.04 2944.33C5897.98 2952.11 5899.75 2966.52 5891.96 2976.48C5769.25 3133.68 5566.8 3235.94 5343.6 3294.73C5069.54 3366.92 4763.33 3373.75 4536.22 3336.3C4523.75 3334.28 4515.26 3322.51 4517.29 3310.02C4519.31 3297.54 4531.08 3289.05 4543.56 3291.09C4765.32 3327.66 5064.31 3321.01 5331.86 3250.54C5546.23 3194.08 5739.92 3096.8 5855.88 2948.25Z" fill="#343E40"/>
</g>
<g id="g226">
<path id="path228" d="M4350.4 3507.39C4337.92 3505.25 4329.53 3493.4 4331.67 3480.92C4333.82 3468.44 4345.69 3460.06 4358.16 3462.2C4539.31 3493.59 4739.89 3503.25 4951 3479.27C5136.99 3458.11 5331.4 3410.83 5528.21 3329.22C5539.88 3324.35 5553.3 3329.87 5558.17 3341.57C5563.03 3353.23 5557.5 3366.67 5545.82 3371.52C5345.03 3454.8 5146.4 3503.1 4956.16 3524.71C4740.16 3549.26 4535.25 3539.43 4350.4 3507.39Z" fill="#343E40"/>
</g>
<g id="g230">
<path id="path232" d="M4145.33 3620.76C4133.84 3615.56 4128.73 3601.97 4133.93 3590.49C4139.15 3578.97 4152.71 3573.86 4164.22 3579.08C4231 3609.44 4335.09 3632.44 4444.87 3648.09C4581.58 3667.55 4726.19 3675.42 4819.14 3671.81C4831.78 3671.34 4842.4 3681.2 4842.88 3693.83C4843.35 3706.46 4833.5 3717.09 4820.86 3717.56C4725.43 3721.27 4577.61 3713.27 4438.4 3693.44C4324.97 3677.31 4216.54 3653.13 4145.33 3620.76Z" fill="#343E40"/>
</g>
<g id="g234">
<path id="path236" d="M5269.46 2664.59C5265.01 2652.76 5271.02 2639.56 5282.85 2635.12C5294.68 2630.68 5307.88 2636.66 5312.33 2648.5C5342.57 2729.38 5351.71 2905.52 5345.87 3080.56C5339.63 3267.67 5316.16 3455.43 5282.94 3525.69C5277.54 3537.14 5263.87 3542.04 5252.44 3536.63C5240.99 3531.22 5236.11 3517.55 5241.5 3506.1C5272.19 3441.22 5294.09 3260.75 5300.15 3079.05C5305.82 2909.11 5297.53 2739.67 5269.46 2664.59Z" fill="#343E40"/>
</g>
<g id="g238">
<path id="path240" d="M5504.37 2663.65C5499.62 2651.9 5505.32 2638.53 5517.06 2633.78C5528.81 2629.06 5542.17 2634.74 5546.91 2646.5C5583.18 2737.02 5596.86 2849.83 5598.65 2959.24C5601.57 3137.61 5572.65 3308.76 5559 3356.65C5555.54 3368.79 5542.87 3375.82 5530.74 3372.36C5518.6 3368.9 5511.55 3356.23 5515.03 3344.09C5528.06 3298.36 5555.67 3133.66 5552.83 2960C5551.12 2855.49 5538.3 2748.32 5504.37 2663.65Z" fill="#343E40"/>
</g>
<g id="g242">
<path id="path244" d="M5011 2713.7C5010.05 2701.11 5019.5 2690.11 5032.11 2689.14C5044.71 2688.16 5055.72 2697.64 5056.68 2710.23C5065.17 2821.51 5057.13 3078.12 5031.54 3301.83C5012.61 3467.37 4983.67 3616.26 4943.96 3678.8C4937.19 3689.49 4923.03 3692.64 4912.35 3685.86C4901.68 3679.08 4898.52 3664.94 4905.3 3654.25C4940.83 3598.26 4967.74 3456.27 4985.99 3296.65C5011.31 3075.44 5019.32 2822.73 5011 2713.7Z" fill="#343E40"/>
</g>
<g id="g246">
<path id="path248" d="M4793.8 2786C4792.52 2773.44 4801.68 2762.19 4814.24 2760.92C4826.8 2759.65 4838.03 2768.83 4839.31 2781.39C4855.01 2935.68 4824.24 3143.62 4768.77 3333.91C4712.44 3527.16 4630.13 3703.44 4544.43 3788.71C4535.45 3797.59 4520.96 3797.54 4512.08 3788.56C4503.18 3779.58 4503.25 3765.08 4512.24 3756.2C4592.4 3676.41 4670.55 3507.59 4724.9 3321.13C4778.87 3135.95 4808.89 2934.44 4793.8 2786Z" fill="#343E40"/>
</g>
<g id="g250">
<path id="path252" d="M4443.38 3391.97C4445.54 3379.54 4457.37 3371.18 4469.8 3373.35C4482.24 3375.5 4490.57 3387.35 4488.41 3399.78C4478.31 3457.98 4451.06 3526.95 4416.29 3596.1C4373.29 3681.6 4318.35 3768.33 4270.35 3835.02C4262.99 3845.29 4248.68 3847.61 4238.42 3840.24C4228.18 3832.86 4225.84 3818.58 4233.22 3808.33C4279.82 3743.55 4333.3 3659.12 4375.34 3575.47C4408.4 3509.72 4434.16 3445.02 4443.38 3391.97Z" fill="#343E40"/>
</g>
<g id="g254">
<path id="path256" d="M5723.96 2698.74C5721.11 2686.41 5728.78 2674.07 5741.11 2671.21C5753.44 2668.35 5765.77 2676.02 5768.64 2688.34C5822.57 2921.12 5766.61 3113.67 5741.8 3199.05L5737.87 3212.67C5734.35 3224.82 5721.65 3231.84 5709.48 3228.34C5697.32 3224.82 5690.3 3212.1 5693.81 3199.95L5697.74 3186.33C5721.54 3104.47 5775.21 2919.85 5723.96 2698.74Z" fill="#343E40"/>
</g>
<g id="g258">
<path id="path260" d="M5889.64 2830.45C5900.91 2824.74 5914.7 2829.25 5920.39 2840.51C5926.09 2851.79 5921.59 2865.56 5910.32 2871.26C5712.2 2972.52 5489.92 3038.39 5267.34 3059.33C5055.66 3079.23 4843.37 3058.54 4650.85 2989.08C4638.96 2984.79 4632.81 2971.64 4637.12 2959.76C4641.41 2947.86 4654.55 2941.72 4666.44 2946.04C4852.23 3013.04 5057.71 3032.97 5263.05 3013.65C5480.07 2993.24 5696.68 2929.07 5889.64 2830.45Z" fill="#343E40"/>
</g>
<g id="g262">
<path id="path264" d="M5739.39 2672.34C5751.46 2668.48 5764.36 2675.16 5768.23 2687.25C5772.07 2699.32 5765.4 2712.23 5753.32 2716.06C5588.32 2768.31 5440.57 2812.46 5282.52 2836.71C5124 2861.03 4955.95 2865.14 4751.35 2837.05C4738.81 2835.36 4730.03 2823.76 4731.74 2811.21C4733.45 2798.68 4745.03 2789.87 4757.58 2791.59C4957.44 2819.03 5121.22 2815.07 5275.43 2791.42C5430.13 2767.69 5576.14 2724.02 5739.39 2672.34Z" fill="#343E40"/>
</g>
</g>
<g id="g14">
<path id="path16" d="M4649.75 3071.63L1647.5 3439.85L1632.21 3340.03L4634.45 2971.79L4649.75 3071.63Z" fill="#343E40"/>
</g>
</g>
<g id="Group 2">
<g id="g26">
<path id="path28" d="M2280.23 2523.6L2228.76 2525.83L2128.59 2842.5L2558.94 3275.48L2677.95 3143.11C2621.31 3036.44 2560.89 2931.16 2496.06 2827.51C2430.3 2722.39 2356.81 2626.88 2280.23 2523.6ZM2282.55 2464.13L2327.93 2488.4L2371.03 2542.53L2473.13 2681.31C2558.37 2794.67 2497.52 2710.34 2578.07 2818.6C2651.34 2935.67 2722.66 3008.79 2784.6 3127.24L2800.98 3158.59L2777.37 3184.85L2598.71 3383.56L2562.76 3423.54L2524.8 3385.35L2106.31 2915.22L2057.33 2849.78L2041.05 2764.22L2046.1 2699.55L2063.92 2659.9L2135.31 2539.35L2182.54 2492.6L2228.71 2463.94L2282.55 2464.13Z" fill="#343E40"/>
</g>
<g id="g30">
<path id="path32" fill-rule="evenodd" clip-rule="evenodd" d="M2155.28 2577.05C2207.64 2525.56 2255.66 2491.74 2290.28 2537.78C2459.52 2762.84 2618.59 2913.93 2741.91 3149.76C2682.34 3216.02 2622.8 3282.24 2563.26 3348.5C2399.9 3184.16 2272.96 2997.5 2109.64 2833.17C2056.48 2710.17 2094.12 2693.9 2155.28 2577.05Z" fill="#97A5AE"/>
</g>
<g id="g270">
<path id="path272" d="M2783.39 3031.44C2812.99 3040.65 2842.66 3055.53 2867.12 3072.62C2901.01 3096.29 2911.79 3135.61 2907.05 3181.93C2902.55 3225.96 2883.76 3278.02 2859.18 3326.45C2835.86 3372.45 2806.73 3416.45 2779.5 3447.85C2743.09 3489.79 2702.76 3513.61 2666.81 3506.28L2666.61 3506.33C2627.21 3498.27 2586.94 3479.93 2555.83 3459.01C2519.03 3434.22 2492.41 3402.9 2488.72 3375.17L2488.3 3372L2488.35 3369.16C2489.57 3295.88 2507.47 3231.76 2536.61 3177.41C2569.84 3115.46 2617.6 3066.57 2672.05 3031.38L2682.29 3024.75L2694.62 3022.82C2722.88 3018.38 2753.76 3022.25 2783.39 3031.44ZM2800.56 3146.04C2783.65 3134.24 2763.24 3123.97 2742.94 3117.67C2732.57 3114.43 2722.77 3112.35 2714.42 3111.85C2679.74 3136.74 2649.37 3169.82 2627.37 3210.85C2605.38 3251.83 2591.64 3300.97 2590.06 3358.05C2592.59 3363.38 2604.53 3373.33 2621.18 3384.53C2643.25 3399.38 2671 3412.23 2697.23 3417.6L2697.2 3417.68C2705.21 3419.22 2691.43 3407.52 2701.49 3395.93C2723.44 3370.64 2747.52 3334.01 2767.37 3294.88C2787.5 3255.16 2802.73 3214.06 2806.06 3181.69C2807.9 3163.61 2806.61 3150.25 2800.56 3146.04Z" fill="#343E40"/>
</g>
<g id="g274">
<path id="path276" fill-rule="evenodd" clip-rule="evenodd" d="M2833.82 3109.32C2794.59 3081.94 2739.69 3061.2 2699.24 3067.52C2610.08 3125.13 2541.46 3225.79 2539.16 3365.86C2543.38 3397.85 2615.09 3448.29 2681.93 3461.95C2710.3 3467.76 2771.23 3393.53 2813.29 3310.66C2854.48 3229.4 2877.52 3139.84 2833.82 3109.32Z" fill="#CFDEE8"/>
</g>
<g id="g278">
<path id="path280" fill-rule="evenodd" clip-rule="evenodd" d="M2833.85 3109.33C2794.56 3081.93 2739.69 3061.2 2699.24 3067.52C2694.52 3070.56 2689.86 3073.74 2685.29 3077.02C2625.38 3136.53 2583.92 3221.26 2582.15 3329.54C2586.37 3361.53 2658.07 3411.97 2724.9 3425.66C2729.05 3426.49 2733.88 3425.62 2739.27 3423.29C2764.19 3394.88 2791.31 3353.97 2813.3 3310.66C2854.48 3229.4 2877.52 3139.84 2833.85 3109.33Z" fill="white"/>
</g>
</g>
</g>
</g>
<defs>
<filter id="filter0_d" x="1600.97" y="2078.83" width="4456.51" height="2262" filterUnits="userSpaceOnUse" color-interpolation-filters="sRGB">
<feFlood flood-opacity="0" result="BackgroundImageFix"/>
<feColorMatrix in="SourceAlpha" type="matrix" values="0 0 0 0 0 0 0 0 0 0 0 0 0 0 0 0 0 0 127 0" result="hardAlpha"/>
<feOffset dy="4"/>
<feGaussianBlur stdDeviation="2"/>
<feComposite in2="hardAlpha" operator="out"/>
<feColorMatrix type="matrix" values="0 0 0 0 0 0 0 0 0 0 0 0 0 0 0 0 0 0 0.25 0"/>
<feBlend mode="normal" in2="BackgroundImageFix" result="effect1_dropShadow"/>
<feBlend mode="normal" in="SourceGraphic" in2="effect1_dropShadow" result="shape"/>
</filter>
</defs>
</svg>
