<svg width="4783" height="3977" viewBox="0 0 4783 3977" fill="none" xmlns="http://www.w3.org/2000/svg">
<g id="hand_net" filter="url(#filter0_d)">
<g id="netStick">
<g id="net">
<g id="g206">
<path id="path208" d="M4047.46 2392.84C4195.11 2304.34 4314.48 2206.44 4392.59 2103.79C4381.03 2109.83 4369.05 2115.69 4356.64 2121.38C4249.53 2170.5 4110.13 2208.13 3957.27 2224.44C3794.85 2241.79 3644.72 2232.14 3530.49 2202.32C3463.98 2184.93 3408.57 2160.14 3368.11 2129.06C3349.7 2200.57 3321.93 2266.77 3283.08 2327.96C3226.24 2417.54 3146.08 2495.72 3037.35 2563.61C3020.52 2574.1 2999.3 2585.99 2975.57 2599.24C2900.76 2641.06 2798.71 2698.15 2776.83 2742.29C2773.99 2748.06 2778.91 2755.39 2796.85 2764.79C2826.86 2773.16 2865.55 2773.66 2907.83 2770.12C2955.09 2766.15 3006.51 2757.05 3055.99 2747.81C3427.55 2678.6 3781.94 2551.98 4047.46 2392.84ZM4578.13 1921.18C4539.31 2123.56 4357.55 2313.99 4094.61 2471.6C3820.23 2636.08 3454.97 2766.73 3072.76 2837.95C3020.88 2847.6 2966.83 2857.16 2915.59 2861.45C2861.1 2866.03 2809.57 2864.59 2766.4 2851.34C2763.95 2850.58 2761.64 2849.67 2759.43 2848.57L2759 2848.34L2758.79 2848.25C2678.9 2808.43 2667.26 2757.07 2694.77 2701.52C2729.17 2632.09 2845.63 2566.95 2931 2519.22C2954.01 2506.36 2974.58 2494.86 2989.06 2485.81C3085.53 2425.59 3156.18 2356.94 3205.74 2278.86C3255.16 2200.98 3284.05 2112.89 3297.05 2013.81C3299.08 1997.99 3308.95 1985.08 3322.27 1978.52L3322.22 1978.42L3322.23 1978.41C3344.98 1967.22 3372.52 1976.58 3383.72 1999.34C3385.5 2002.95 3386.76 2006.73 3387.53 2010.53C3400.1 2053.53 3461.68 2089.72 3553.68 2113.73C3657.55 2140.85 3795.99 2149.42 3947.58 2133.25C4090.82 2117.96 4220.08 2083.33 4318.17 2038.33C4411 1995.76 4473.74 1946.14 4489.62 1898.15C4497.57 1874.15 4523.49 1861.14 4547.49 1869.07C4569.58 1876.38 4582.37 1898.91 4578.08 1921.17L4578.13 1921.18Z" fill="#343E40"/>
</g>
<g id="g210">
<path id="path212" fill-rule="evenodd" clip-rule="evenodd" d="M4533.09 1912.54C4458.2 2302.85 3793.28 2657.08 3064.37 2792.89C2963 2811.77 2853.51 2830.16 2779.83 2807.54C2609.18 2723.03 2914.66 2586.25 3013.21 2524.72C3218.42 2396.62 3314.77 2231.05 3342.5 2019.62L3342.51 2019.62C3373.34 2141.82 3637.15 2212.5 3952.43 2178.84C4250.78 2147 4493.36 2032.63 4533.09 1912.54Z" fill="#CFDEE8"/>
</g>
<g id="g214">
<path id="path216" d="M3431.52 1996.22C3431.53 1996.25 3431.53 1996.25 3431.53 1996.22L3431.52 1996.22ZM3431.52 1996.22L3431.53 1996.22L3431.52 1995.77L3431.5 1995.79L3431.52 1996.22ZM4329.91 1981.14C4402.7 1943.14 4447.27 1906.06 4446.7 1878.74L4446.56 1877.53C4444.36 1856.92 4406.71 1834.63 4346.14 1814.53C4260.83 1786.27 4142.21 1773.24 4007.97 1780.61C3985.35 1781.86 3961.21 1783.82 3935.62 1786.56C3781.33 1803.02 3644.64 1842.34 3548.39 1892.56C3475.42 1930.65 3430.8 1967.82 3431.61 1995.15L3431.74 1996.18C3433.95 2016.78 3471.58 2039.06 3532.14 2059.15C3617.45 2087.45 3736.04 2100.46 3870.27 2093.09C3892.99 2091.83 3915.6 2090.07 3937.94 2087.77C3939.51 2087.52 3941.09 2087.32 3942.67 2087.15C4096.97 2070.68 4233.66 2031.36 4329.91 1981.14ZM4630.67 1867.79C4636.51 1974.06 4553.66 2071.95 4415.04 2144.31C4299.11 2204.83 4139 2251.69 3962.17 2270.55C3960.56 2270.73 3958.93 2270.86 3957.32 2270.94C3930.78 2273.71 3905.1 2275.72 3880.4 2277.09C3723.14 2285.71 3580.49 2269.24 3474.24 2233.98C3343.26 2190.55 3258.98 2115.25 3248.33 2015.68L3247.79 2006.22L3247.78 2005.91L3247.63 2005.91C3241.8 1899.65 3324.65 1801.75 3463.27 1729.39C3579.19 1668.88 3739.32 1622.01 3916.12 1603.13C3942.64 1600.32 3969.96 1598.13 3997.84 1596.61C4155.09 1587.96 4297.79 1604.45 4404.04 1639.7C4535.04 1683.13 4619.34 1758.45 4629.97 1858.03C4630.17 1859.95 4630.31 1861.87 4630.39 1863.79L4630.67 1867.79Z" fill="#343E40"/>
</g>
<g id="g218">
<path id="path220" fill-rule="evenodd" clip-rule="evenodd" d="M4538.67 1872.86C4546.01 2006.53 4283.54 2143.52 3952.42 2178.85C3621.32 2214.2 3346.96 2134.5 3339.62 2000.82C3332.3 1867.17 3594.76 1730.18 3925.88 1694.86C4256.99 1659.51 4531.34 1739.21 4538.67 1872.86Z" fill="#CFDEE8"/>
</g>
<g id="g222">
<path id="path224" d="M4515.88 1968.25C4523.66 1958.29 4538.06 1956.53 4548.04 1964.33C4557.98 1972.11 4559.75 1986.52 4551.96 1996.48C4429.25 2153.68 4226.8 2255.94 4003.6 2314.73C3729.54 2386.92 3423.33 2393.75 3196.22 2356.3C3183.75 2354.28 3175.26 2342.51 3177.29 2330.02C3179.31 2317.54 3191.08 2309.05 3203.56 2311.09C3425.32 2347.66 3724.31 2341.01 3991.86 2270.54C4206.23 2214.08 4399.92 2116.8 4515.88 1968.25Z" fill="#343E40"/>
</g>
<g id="g226">
<path id="path228" d="M3010.4 2527.39C2997.92 2525.25 2989.53 2513.4 2991.67 2500.92C2993.82 2488.44 3005.69 2480.06 3018.16 2482.2C3199.31 2513.59 3399.89 2523.25 3611 2499.27C3796.99 2478.11 3991.4 2430.83 4188.21 2349.22C4199.88 2344.35 4213.3 2349.87 4218.17 2361.57C4223.03 2373.23 4217.5 2386.67 4205.82 2391.52C4005.03 2474.8 3806.4 2523.1 3616.16 2544.71C3400.16 2569.26 3195.25 2559.43 3010.4 2527.39Z" fill="#343E40"/>
</g>
<g id="g230">
<path id="path232" d="M2805.33 2640.76C2793.84 2635.56 2788.73 2621.97 2793.93 2610.49C2799.15 2598.97 2812.71 2593.86 2824.22 2599.08C2891 2629.44 2995.09 2652.44 3104.87 2668.09C3241.58 2687.55 3386.19 2695.42 3479.14 2691.81C3491.78 2691.34 3502.4 2701.2 3502.88 2713.83C3503.35 2726.46 3493.5 2737.09 3480.86 2737.56C3385.43 2741.27 3237.61 2733.27 3098.4 2713.44C2984.97 2697.31 2876.54 2673.13 2805.33 2640.76Z" fill="#343E40"/>
</g>
<g id="g234">
<path id="path236" d="M3929.46 1684.59C3925.01 1672.76 3931.02 1659.56 3942.85 1655.12C3954.68 1650.68 3967.88 1656.66 3972.33 1668.5C4002.57 1749.38 4011.71 1925.52 4005.87 2100.56C3999.64 2287.67 3976.16 2475.43 3942.94 2545.69C3937.54 2557.14 3923.87 2562.04 3912.44 2556.63C3900.99 2551.22 3896.11 2537.55 3901.51 2526.1C3932.19 2461.22 3954.09 2280.75 3960.15 2099.05C3965.82 1929.11 3957.53 1759.67 3929.46 1684.59Z" fill="#343E40"/>
</g>
<g id="g238">
<path id="path240" d="M4164.37 1683.65C4159.62 1671.9 4165.32 1658.53 4177.06 1653.78C4188.81 1649.06 4202.17 1654.74 4206.91 1666.5C4243.18 1757.02 4256.86 1869.83 4258.65 1979.24C4261.57 2157.61 4232.65 2328.76 4219 2376.65C4215.54 2388.79 4202.87 2395.82 4190.74 2392.36C4178.6 2388.9 4171.55 2376.23 4175.03 2364.09C4188.06 2318.36 4215.67 2153.66 4212.83 1980C4211.12 1875.49 4198.3 1768.32 4164.37 1683.65Z" fill="#343E40"/>
</g>
<g id="g242">
<path id="path244" d="M3671.01 1733.7C3670.05 1721.11 3679.5 1710.11 3692.11 1709.14C3704.71 1708.16 3715.72 1717.64 3716.68 1730.23C3725.17 1841.51 3717.13 2098.12 3691.54 2321.83C3672.61 2487.37 3643.67 2636.26 3603.97 2698.8C3597.19 2709.49 3583.03 2712.64 3572.35 2705.86C3561.68 2699.08 3558.52 2684.94 3565.3 2674.25C3600.83 2618.26 3627.74 2476.27 3645.99 2316.65C3671.31 2095.44 3679.32 1842.73 3671.01 1733.7Z" fill="#343E40"/>
</g>
<g id="g246">
<path id="path248" d="M3453.8 1806C3452.52 1793.44 3461.68 1782.19 3474.24 1780.92C3486.8 1779.65 3498.03 1788.83 3499.31 1801.39C3515.01 1955.68 3484.24 2163.62 3428.77 2353.91C3372.44 2547.16 3290.13 2723.44 3204.43 2808.71C3195.45 2817.59 3180.96 2817.54 3172.08 2808.56C3163.18 2799.58 3163.25 2785.08 3172.24 2776.2C3252.4 2696.41 3330.55 2527.59 3384.9 2341.13C3438.87 2155.95 3468.89 1954.44 3453.8 1806Z" fill="#343E40"/>
</g>
<g id="g250">
<path id="path252" d="M3103.38 2411.97C3105.54 2399.54 3117.37 2391.18 3129.8 2393.35C3142.24 2395.5 3150.57 2407.35 3148.41 2419.78C3138.31 2477.98 3111.06 2546.95 3076.29 2616.1C3033.3 2701.6 2978.35 2788.33 2930.35 2855.02C2922.99 2865.29 2908.68 2867.61 2898.42 2860.24C2888.18 2852.86 2885.84 2838.58 2893.22 2828.33C2939.82 2763.55 2993.3 2679.12 3035.34 2595.47C3068.4 2529.72 3094.16 2465.02 3103.38 2411.97Z" fill="#343E40"/>
</g>
<g id="g254">
<path id="path256" d="M4383.96 1718.74C4381.11 1706.41 4388.78 1694.07 4401.11 1691.21C4413.44 1688.35 4425.77 1696.02 4428.64 1708.34C4482.57 1941.12 4426.61 2133.67 4401.8 2219.05L4397.87 2232.67C4394.35 2244.82 4381.65 2251.84 4369.48 2248.34C4357.32 2244.82 4350.3 2232.1 4353.81 2219.95L4357.74 2206.33C4381.54 2124.47 4435.21 1939.85 4383.96 1718.74Z" fill="#343E40"/>
</g>
<g id="g258">
<path id="path260" d="M4549.64 1850.45C4560.91 1844.74 4574.7 1849.25 4580.39 1860.51C4586.09 1871.79 4581.59 1885.56 4570.32 1891.26C4372.2 1992.52 4149.92 2058.39 3927.34 2079.33C3715.66 2099.23 3503.37 2078.54 3310.85 2009.08C3298.96 2004.79 3292.81 1991.64 3297.12 1979.76C3301.41 1967.86 3314.55 1961.72 3326.44 1966.04C3512.23 2033.04 3717.71 2052.97 3923.05 2033.65C4140.07 2013.24 4356.68 1949.07 4549.64 1850.45Z" fill="#343E40"/>
</g>
<g id="g262">
<path id="path264" d="M4399.39 1692.34C4411.46 1688.48 4424.36 1695.16 4428.23 1707.25C4432.07 1719.32 4425.4 1732.23 4413.32 1736.06C4248.32 1788.31 4100.57 1832.46 3942.52 1856.71C3784 1881.03 3615.95 1885.14 3411.35 1857.05C3398.81 1855.36 3390.03 1843.76 3391.74 1831.21C3393.45 1818.68 3405.03 1809.87 3417.58 1811.59C3617.44 1839.03 3781.22 1835.07 3935.43 1811.42C4090.13 1787.69 4236.14 1744.02 4399.39 1692.34Z" fill="#343E40"/>
</g>
</g>
<g id="g14">
<path id="path16" d="M3309.76 2091.63L307.501 2459.85L292.206 2360.03L3294.45 1991.79L3309.76 2091.63Z" fill="#343E40"/>
</g>
</g>
<g id="Group 2">
<g id="g26">
<path id="path28" d="M940.229 1543.6L888.763 1545.83L788.588 1862.5L1218.94 2295.48L1337.95 2163.11C1281.31 2056.44 1220.89 1951.16 1156.06 1847.51C1090.3 1742.39 1016.81 1646.88 940.229 1543.6ZM942.547 1484.13L987.935 1508.4L1031.03 1562.53L1133.13 1701.31C1218.37 1814.67 1157.52 1730.34 1238.07 1838.6C1311.34 1955.67 1382.66 2028.79 1444.6 2147.24L1460.98 2178.59L1437.37 2204.85L1258.71 2403.56L1222.76 2443.54L1184.8 2405.35L766.307 1935.22L717.33 1869.78L701.053 1784.22L706.099 1719.55L723.919 1679.9L795.312 1559.35L842.537 1512.6L888.711 1483.94L942.547 1484.13Z" fill="#343E40"/>
</g>
<g id="g30">
<path id="path32" fill-rule="evenodd" clip-rule="evenodd" d="M815.284 1597.05C867.643 1545.56 915.658 1511.74 950.281 1557.78C1119.52 1782.84 1278.59 1933.93 1401.91 2169.76C1342.34 2236.02 1282.8 2302.24 1223.26 2368.5C1059.9 2204.16 932.963 2017.5 769.636 1853.17C716.481 1730.17 754.117 1713.9 815.284 1597.05Z" fill="#97A5AE"/>
</g>
<g id="g270">
<path id="path272" d="M1443.39 2051.44C1472.99 2060.65 1502.66 2075.53 1527.12 2092.62C1561.01 2116.29 1571.79 2155.61 1567.05 2201.93C1562.55 2245.96 1543.76 2298.02 1519.18 2346.45C1495.86 2392.45 1466.73 2436.45 1439.5 2467.85C1403.09 2509.79 1362.76 2533.61 1326.81 2526.28L1326.61 2526.33C1287.21 2518.27 1246.94 2499.93 1215.83 2479.01C1179.03 2454.22 1152.41 2422.9 1148.72 2395.17L1148.3 2392L1148.35 2389.16C1149.57 2315.88 1167.47 2251.76 1196.61 2197.41C1229.84 2135.46 1277.6 2086.57 1332.05 2051.38L1342.29 2044.75L1354.62 2042.82C1382.88 2038.38 1413.76 2042.25 1443.39 2051.44ZM1460.56 2166.04C1443.65 2154.24 1423.24 2143.97 1402.94 2137.67C1392.57 2134.43 1382.77 2132.35 1374.42 2131.85C1339.74 2156.74 1309.37 2189.82 1287.37 2230.85C1265.38 2271.83 1251.64 2320.97 1250.06 2378.05C1252.59 2383.38 1264.53 2393.33 1281.18 2404.53C1303.25 2419.38 1331 2432.23 1357.23 2437.6L1357.2 2437.68C1365.21 2439.22 1351.43 2427.52 1361.49 2415.93C1383.44 2390.64 1407.52 2354.01 1427.37 2314.88C1447.5 2275.16 1462.73 2234.06 1466.06 2201.69C1467.9 2183.61 1466.61 2170.25 1460.56 2166.04Z" fill="#343E40"/>
</g>
<g id="g274">
<path id="path276" fill-rule="evenodd" clip-rule="evenodd" d="M1493.82 2129.32C1454.59 2101.94 1399.69 2081.2 1359.24 2087.52C1270.08 2145.13 1201.46 2245.79 1199.16 2385.86C1203.38 2417.85 1275.09 2468.29 1341.93 2481.95C1370.3 2487.76 1431.23 2413.53 1473.29 2330.66C1514.48 2249.4 1537.52 2159.84 1493.82 2129.32Z" fill="#CFDEE8"/>
</g>
<g id="g278">
<path id="path280" fill-rule="evenodd" clip-rule="evenodd" d="M1493.85 2129.33C1454.56 2101.93 1399.69 2081.2 1359.24 2087.52C1354.52 2090.56 1349.86 2093.74 1345.29 2097.02C1285.38 2156.53 1243.92 2241.26 1242.15 2349.54C1246.37 2381.53 1318.07 2431.97 1384.9 2445.66C1389.05 2446.49 1393.88 2445.62 1399.27 2443.29C1424.19 2414.88 1451.31 2373.97 1473.3 2330.66C1514.48 2249.4 1537.52 2159.84 1493.85 2129.33Z" fill="white"/>
</g>
</g>
</g>
<defs>
<filter id="filter0_d" x="260.974" y="1098.83" width="4456.51" height="2262" filterUnits="userSpaceOnUse" color-interpolation-filters="sRGB">
<feFlood flood-opacity="0" result="BackgroundImageFix"/>
<feColorMatrix in="SourceAlpha" type="matrix" values="0 0 0 0 0 0 0 0 0 0 0 0 0 0 0 0 0 0 127 0" result="hardAlpha"/>
<feOffset dy="4"/>
<feGaussianBlur stdDeviation="2"/>
<feComposite in2="hardAlpha" operator="out"/>
<feColorMatrix type="matrix" values="0 0 0 0 0 0 0 0 0 0 0 0 0 0 0 0 0 0 0.25 0"/>
<feBlend mode="normal" in2="BackgroundImageFix" result="effect1_dropShadow"/>
<feBlend mode="normal" in="SourceGraphic" in2="effect1_dropShadow" result="shape"/>
</filter>
</defs>
</svg>
