<svg width="293" height="276" viewBox="0 0 293 276" fill="none" xmlns="http://www.w3.org/2000/svg">
<g id="face">
<path id="Vector" d="M106.455 56.0562C106.455 56.0562 77.5548 16.9462 24.2248 0.436188C22.7809 -0.0131035 21.2516 -0.117101 19.7601 0.132538C18.2686 0.382178 16.8566 0.978477 15.6376 1.87347C14.4187 2.76847 13.4269 3.93714 12.7421 5.28543C12.0572 6.63372 11.6986 8.12397 11.6948 9.6362C11.8548 61.1362 25.3348 103.366 39.4248 117.736C77.1848 89.6362 106.455 56.0562 106.455 56.0562Z" fill="#738DE0"/>
<path id="Vector_2" d="M91.5248 61.6362C91.5248 61.6362 72.5748 35.9962 37.6248 25.1762C36.6803 24.8807 35.6797 24.8107 34.7033 24.972C33.727 25.1332 32.802 25.5211 32.0027 26.1046C31.2033 26.688 30.5519 27.4507 30.1008 28.3315C29.6496 29.2123 29.4112 30.1866 29.4048 31.1762C29.5148 64.9362 38.3448 92.6262 47.5848 102.046C63.4695 89.9878 78.1814 76.4579 91.5248 61.6362V61.6362Z" fill="#99ADF9" stroke="#738DE0" stroke-miterlimit="10"/>
<path id="Vector_3" d="M186.405 56.0562C186.405 56.0562 215.305 16.9462 268.635 0.436188C270.079 -0.0131035 271.608 -0.117101 273.099 0.132538C274.591 0.382178 276.003 0.978477 277.222 1.87347C278.441 2.76847 279.433 3.93714 280.118 5.28543C280.802 6.63372 281.161 8.12397 281.165 9.6362C281.005 61.1362 267.525 103.366 253.435 117.736C215.625 89.6362 186.405 56.0562 186.405 56.0562Z" fill="#738DE0"/>
<path id="Vector_4" d="M201.285 61.6362C201.285 61.6362 220.285 35.9962 255.185 25.1762C256.129 24.8807 257.13 24.8107 258.106 24.972C259.082 25.1332 260.008 25.5211 260.807 26.1046C261.606 26.688 262.258 27.4507 262.709 28.3315C263.16 29.2123 263.398 30.1866 263.405 31.1762C263.295 64.9362 254.465 92.6262 245.225 102.046C229.34 89.9878 214.628 76.4579 201.285 61.6362V61.6362Z" fill="#99ADF9" stroke="#738DE0" stroke-miterlimit="10"/>
<path id="Vector_5" d="M146.405 271.976C229.235 271.976 290.995 227.196 292.745 209.346C294.495 191.496 274.605 119.496 254.695 87.8862C234.785 56.2762 203.185 41.3462 146.405 41.3462C89.6248 41.3462 58.0147 56.2762 38.1147 87.8862C18.2148 119.496 -1.69525 191.496 0.114748 209.346C1.92475 227.196 63.5748 271.976 146.405 271.976Z" fill="#738DE0"/>
<path id="Vector_6" d="M269.335 204.226C266.475 184.026 230.695 105.006 205.675 102.146C180.655 99.2862 155.185 174.226 146.405 226.906C137.625 174.226 112.165 99.2962 87.1348 102.126C62.1048 104.956 26.3348 184.006 23.4748 204.206C20.6148 224.406 34.8848 241.296 47.4748 249.656C78.3845 264.339 112.175 271.956 146.395 271.956C180.614 271.956 214.405 264.339 245.315 249.656C257.925 241.316 272.185 224.416 269.335 204.226Z" fill="#C7DCF9"/>
<path id="Vector_7" d="M199.855 240.966C197.135 212.096 165.855 179.906 146.405 179.906C126.955 179.906 95.6747 212.126 92.9547 240.966C90.2347 269.806 113.005 275.346 146.405 275.346C179.805 275.346 202.565 269.836 199.855 240.966Z" fill="#738DE0"/>
<path id="leftEye" d="M96.9047 186.856C102.604 186.856 107.225 182.236 107.225 176.536C107.225 170.837 102.604 166.216 96.9047 166.216C91.2051 166.216 86.5847 170.837 86.5847 176.536C86.5847 182.236 91.2051 186.856 96.9047 186.856Z" fill="#1C3177"/>
<path id="left-eyebrow" d="M106.175 143.246C110.175 140.846 108.595 131.436 102.485 129.816C96.3747 128.196 79.8448 130.446 77.8148 135.036C75.7848 139.626 78.4347 143.036 83.4047 144.366C88.3747 145.696 102.485 145.486 106.175 143.246Z" fill="#738DE0"/>
<path id="rightEye" d="M195.905 186.856C201.604 186.856 206.225 182.236 206.225 176.536C206.225 170.837 201.604 166.216 195.905 166.216C190.205 166.216 185.585 170.837 185.585 176.536C185.585 182.236 190.205 186.856 195.905 186.856Z" fill="#1C3177"/>
<path id="right-eyebrow" d="M186.635 143.246C182.635 140.846 184.215 131.436 190.325 129.816C196.435 128.196 212.965 130.446 214.995 135.036C217.025 139.626 214.375 143.036 209.405 144.366C204.435 145.696 190.325 145.486 186.635 143.246Z" fill="#738DE0"/>
<path id="Vector_8" d="M164.455 213.546C164.455 218.616 156.375 228.956 146.455 228.956C136.535 228.956 128.455 218.616 128.455 213.546C128.455 208.476 136.535 204.366 146.455 204.366C156.375 204.366 164.455 208.476 164.455 213.546Z" fill="#1C3177"/>
<path id="Vector_9" opacity="0.45" d="M146.405 224.256C146.405 224.256 146.405 236.136 132.405 239.896" stroke="#1C3177" stroke-width="6" stroke-miterlimit="10" stroke-linecap="round"/>
<path id="Vector_10" opacity="0.45" d="M146.405 224.256C146.405 224.256 146.405 236.136 160.405 239.896" stroke="#1C3177" stroke-width="6" stroke-miterlimit="10" stroke-linecap="round"/>
</g>
</svg>
