<svg width="160" height="100" viewBox="0 0 160 100" fill="none" xmlns="http://www.w3.org/2000/svg">
<ellipse cx="80" cy="50" rx="80" ry="50" fill="white"/>
<path d="M19.5 67L36.3875 91.75H2.6125L19.5 67Z" fill="white"/>
<path d="M52.7031 56.873C52.7031 56.0345 52.4069 55.3281 51.8145 54.7539C51.2311 54.1797 50.2422 53.6602 48.8477 53.1953C46.9062 52.6029 45.4889 51.8327 44.5957 50.8848C43.7116 49.9277 43.2695 48.7155 43.2695 47.248C43.2695 45.7533 43.7025 44.5273 44.5684 43.5703C45.4434 42.6133 46.6419 42.0436 48.1641 41.8613V38.8672H50.2012V41.875C51.7324 42.0846 52.9219 42.7272 53.7695 43.8027C54.6263 44.8783 55.0547 46.3503 55.0547 48.2188H52.5391C52.5391 46.9336 52.2337 45.9128 51.623 45.1562C51.0124 44.3997 50.1875 44.0215 49.1484 44.0215C48.0638 44.0215 47.2344 44.304 46.6602 44.8691C46.0859 45.4251 45.7988 46.2044 45.7988 47.207C45.7988 48.1367 46.0996 48.8796 46.7012 49.4355C47.3118 49.9824 48.3099 50.4837 49.6953 50.9395C51.0898 51.3861 52.1745 51.8828 52.9492 52.4297C53.7331 52.9674 54.3073 53.5964 54.6719 54.3164C55.0456 55.0365 55.2324 55.8796 55.2324 56.8457C55.2324 58.3861 54.7676 59.6257 53.8379 60.5645C52.9173 61.5033 51.623 62.0592 49.9551 62.2324V64.8438H47.9316V62.2324C46.2363 62.0775 44.9056 61.4759 43.9395 60.4277C42.9824 59.3704 42.5039 57.9395 42.5039 56.1348H45.0332C45.0332 57.4017 45.3659 58.377 46.0312 59.0605C46.6966 59.7441 47.64 60.0859 48.8613 60.0859C50.0553 60.0859 50.9941 59.7988 51.6777 59.2246C52.3613 58.6504 52.7031 57.8665 52.7031 56.873ZM58.1582 45.9219C58.1582 44.7279 58.5365 43.7435 59.293 42.9688C60.0586 42.194 61.0384 41.8066 62.2324 41.8066C63.4447 41.8066 64.4245 42.1986 65.1719 42.9824C65.9284 43.7572 66.3066 44.7643 66.3066 46.0039V46.9746C66.3066 48.1777 65.9238 49.1621 65.1582 49.9277C64.4017 50.6842 63.4355 51.0625 62.2598 51.0625C61.0749 51.0625 60.0951 50.6842 59.3203 49.9277C58.5456 49.1621 58.1582 48.1458 58.1582 46.8789V45.9219ZM60.0449 46.9746C60.0449 47.6855 60.2454 48.2734 60.6465 48.7383C61.0475 49.194 61.5853 49.4219 62.2598 49.4219C62.9069 49.4219 63.4264 49.1986 63.8184 48.752C64.2194 48.3053 64.4199 47.6947 64.4199 46.9199V45.9219C64.4199 45.2109 64.224 44.623 63.832 44.1582C63.4401 43.6934 62.9069 43.4609 62.2324 43.4609C61.5579 43.4609 61.0247 43.6934 60.6328 44.1582C60.2409 44.623 60.0449 45.2292 60.0449 45.9766V46.9746ZM67.8516 57.1191C67.8516 55.9251 68.2298 54.9453 68.9863 54.1797C69.752 53.4049 70.7318 53.0176 71.9258 53.0176C73.1198 53.0176 74.0996 53.4004 74.8652 54.166C75.6309 54.9316 76.0137 55.9479 76.0137 57.2148V58.1855C76.0137 59.3796 75.6309 60.3639 74.8652 61.1387C74.1087 61.9043 73.138 62.2871 71.9531 62.2871C70.7682 62.2871 69.7884 61.9089 69.0137 61.1523C68.2389 60.3867 67.8516 59.3704 67.8516 58.1035V57.1191ZM69.7383 58.1855C69.7383 58.9056 69.9388 59.498 70.3398 59.9629C70.7409 60.4186 71.2786 60.6465 71.9531 60.6465C72.6094 60.6465 73.1335 60.4232 73.5254 59.9766C73.9173 59.5208 74.1133 58.9056 74.1133 58.1309V57.1191C74.1133 56.3991 73.9128 55.8112 73.5117 55.3555C73.1198 54.8997 72.5911 54.6719 71.9258 54.6719C71.2786 54.6719 70.75 54.8997 70.3398 55.3555C69.9388 55.8021 69.7383 56.4082 69.7383 57.1738V58.1855ZM62.834 60.4961L61.3984 59.5938L71.1191 44.0352L72.5547 44.9375L62.834 60.4961ZM78.666 45.9219C78.666 44.7279 79.0443 43.7435 79.8008 42.9688C80.5664 42.194 81.5462 41.8066 82.7402 41.8066C83.9525 41.8066 84.9323 42.1986 85.6797 42.9824C86.4362 43.7572 86.8145 44.7643 86.8145 46.0039V46.9746C86.8145 48.1777 86.4316 49.1621 85.666 49.9277C84.9095 50.6842 83.9434 51.0625 82.7676 51.0625C81.5827 51.0625 80.6029 50.6842 79.8281 49.9277C79.0534 49.1621 78.666 48.1458 78.666 46.8789V45.9219ZM80.5527 46.9746C80.5527 47.6855 80.7533 48.2734 81.1543 48.7383C81.5553 49.194 82.0931 49.4219 82.7676 49.4219C83.4147 49.4219 83.9342 49.1986 84.3262 48.752C84.7272 48.3053 84.9277 47.6947 84.9277 46.9199V45.9219C84.9277 45.2109 84.7318 44.623 84.3398 44.1582C83.9479 43.6934 83.4147 43.4609 82.7402 43.4609C82.0658 43.4609 81.5326 43.6934 81.1406 44.1582C80.7487 44.623 80.5527 45.2292 80.5527 45.9766V46.9746ZM88.3594 57.1191C88.3594 55.9251 88.7376 54.9453 89.4941 54.1797C90.2598 53.4049 91.2396 53.0176 92.4336 53.0176C93.6276 53.0176 94.6074 53.4004 95.373 54.166C96.1387 54.9316 96.5215 55.9479 96.5215 57.2148V58.1855C96.5215 59.3796 96.1387 60.3639 95.373 61.1387C94.6165 61.9043 93.6458 62.2871 92.4609 62.2871C91.276 62.2871 90.2962 61.9089 89.5215 61.1523C88.7467 60.3867 88.3594 59.3704 88.3594 58.1035V57.1191ZM90.2461 58.1855C90.2461 58.9056 90.4466 59.498 90.8477 59.9629C91.2487 60.4186 91.7865 60.6465 92.4609 60.6465C93.1172 60.6465 93.6413 60.4232 94.0332 59.9766C94.4251 59.5208 94.6211 58.9056 94.6211 58.1309V57.1191C94.6211 56.3991 94.4206 55.8112 94.0195 55.3555C93.6276 54.8997 93.099 54.6719 92.4336 54.6719C91.7865 54.6719 91.2578 54.8997 90.8477 55.3555C90.4466 55.8021 90.2461 56.4082 90.2461 57.1738V58.1855ZM83.3418 60.4961L81.9062 59.5938L91.627 44.0352L93.0625 44.9375L83.3418 60.4961ZM108.197 56.3945H104.588L103.494 62H101.539L102.633 56.3945H99.3652V54.5215H102.988L103.932 49.6816H100.404V47.7812H104.301L105.422 42.0938H107.377L106.256 47.7812H109.865L110.986 42.0938H112.955L111.834 47.7812H114.623V49.6816H111.465L110.521 54.5215H113.598V56.3945H110.166L109.072 62H107.104L108.197 56.3945ZM104.943 54.5215H108.553L109.496 49.6816H105.887L104.943 54.5215Z" fill="black"/>
</svg>
